# Blender v2.79 (sub 0) OBJ File: ''
# www.blender.org
mtllib border.mtl
o Cube_Cube.002
v -4.369833 0.035954 -8.208467
v -4.369833 0.375954 -8.208467
v -4.369833 0.375954 -8.600556
v -4.369833 0.035954 -8.600556
v -4.029833 0.375954 -8.600556
v -4.029833 0.035954 -8.600556
v -4.029833 0.035951 8.267662
v 4.013328 0.035951 8.267662
v 4.013328 0.035951 8.617471
v -4.029833 0.035951 8.617471
v -4.029833 0.375951 8.617471
v -4.369833 0.375951 8.617471
v -4.369833 0.035951 8.617471
v -4.369833 0.035951 8.267662
v -4.029833 0.375951 8.267662
v -4.369833 0.375951 8.267662
v -4.029833 0.375954 -8.208467
v -4.029833 0.035954 -8.208467
v 4.385983 0.035951 8.267662
v 4.385983 0.375951 8.267662
v 4.385983 0.375951 8.617471
v 4.385983 0.035951 8.617471
v 4.013328 0.375951 8.267662
v 4.013328 0.375954 -8.208467
v 4.013328 0.035954 -8.208467
v 4.013328 0.375951 8.617471
v 4.013328 0.375954 -8.600556
v 4.385983 0.375954 -8.600556
v 4.385983 0.035954 -8.600556
v 4.013328 0.035954 -8.600556
v 4.385983 0.375954 -8.208467
v 4.385983 0.035954 -8.208467
vt 0.182280 0.211158
vt 0.182280 0.253418
vt 0.181317 0.253418
vt 0.181317 0.211158
vt 0.182585 0.212668
vt 0.182585 0.170410
vt 0.224844 0.170410
vt 0.224844 0.212668
vt 0.000153 0.272579
vt 0.221930 0.272579
vt 0.221963 0.276449
vt 0.000186 0.276449
vt 0.131598 0.211158
vt 0.131598 0.253417
vt 0.089339 0.253417
vt 0.089339 0.211158
vt 0.131903 0.255607
vt 0.174164 0.255606
vt 0.174164 0.256465
vt 0.131903 0.256465
vt 0.224846 0.256396
vt 0.182585 0.256396
vt 0.182585 0.255538
vt 0.224846 0.255538
vt 0.174162 0.251602
vt 0.131903 0.251602
vt 0.131903 0.211158
vt 0.174162 0.211158
vt 0.182585 0.255232
vt 0.182585 0.212974
vt 0.223028 0.212974
vt 0.223028 0.255232
vt 0.265592 0.170410
vt 0.265592 0.212668
vt 0.225149 0.212668
vt 0.225149 0.170410
vt 0.266756 0.170410
vt 0.266756 0.212670
vt 0.265898 0.212670
vt 0.265898 0.170410
vt 0.179744 0.211158
vt 0.179744 0.253419
vt 0.178886 0.253419
vt 0.178886 0.211158
vt 0.040596 0.259291
vt 0.000153 0.259291
vt 0.000153 0.217032
vt 0.040596 0.217032
vt 0.131903 0.254443
vt 0.178219 0.254443
vt 0.178219 0.255301
vt 0.131903 0.255301
vt 0.042717 0.170410
vt 0.089034 0.170410
vt 0.089034 0.212668
vt 0.042717 0.212668
vt 0.085282 0.253722
vt 0.131598 0.253723
vt 0.131598 0.254581
vt 0.085282 0.254581
vt 0.000153 0.000153
vt 0.999847 0.000153
vt 0.999847 0.042412
vt 0.000153 0.042411
vt 0.000153 0.268403
vt 0.221930 0.268402
vt 0.221963 0.272273
vt 0.000186 0.272273
vt 0.000153 0.042717
vt 0.999847 0.042717
vt 0.999847 0.084976
vt 0.000153 0.084975
vt 0.000153 0.216727
vt 0.000153 0.170410
vt 0.042411 0.170410
vt 0.042411 0.216727
vt 0.178221 0.251907
vt 0.178221 0.252870
vt 0.131903 0.252870
vt 0.131903 0.251907
vt 0.180050 0.211158
vt 0.181012 0.211158
vt 0.181012 0.253418
vt 0.180050 0.253418
vt 0.131903 0.254137
vt 0.131903 0.253175
vt 0.178221 0.253175
vt 0.178221 0.254137
vt 0.085282 0.254886
vt 0.127541 0.254886
vt 0.127541 0.255849
vt 0.085282 0.255849
vt 0.223334 0.212974
vt 0.265592 0.212974
vt 0.265592 0.253417
vt 0.223334 0.253417
vt 0.089339 0.210853
vt 0.089339 0.170410
vt 0.135657 0.170410
vt 0.135657 0.210853
vt 0.084976 0.256500
vt 0.042717 0.256500
vt 0.042717 0.255538
vt 0.084976 0.255538
vt 0.042717 0.212974
vt 0.083160 0.212974
vt 0.083160 0.255232
vt 0.042717 0.255232
vt 0.182280 0.170410
vt 0.182280 0.210853
vt 0.135962 0.210853
vt 0.135962 0.170410
vt 0.234986 0.268097
vt 0.000188 0.268097
vt 0.000153 0.263999
vt 0.234951 0.263999
vt 0.999847 0.127539
vt 0.000153 0.127540
vt 0.000153 0.085281
vt 0.999847 0.085281
vt 0.234986 0.263694
vt 0.000188 0.263694
vt 0.000153 0.259596
vt 0.234951 0.259596
vt 0.999847 0.170103
vt 0.000153 0.170104
vt 0.000153 0.127845
vt 0.999847 0.127845
vn -1.0000 0.0000 0.0000
vn 0.0000 0.0000 -1.0000
vn 0.0000 -1.0000 -0.0000
vn 0.0000 0.0000 1.0000
vn 0.0000 1.0000 0.0000
vn 1.0000 0.0000 0.0000
usemtl None
s 1
f 1/1/1 2/2/1 3/3/1 4/4/1
f 4/5/2 3/6/2 5/7/2 6/8/2
f 7/9/3 8/10/3 9/11/3 10/12/3
f 10/13/4 11/14/4 12/15/4 13/16/4
f 14/17/3 7/18/3 10/19/3 13/20/3
f 15/21/5 16/22/5 12/23/5 11/24/5
f 17/25/5 2/26/5 16/27/5 15/28/5
f 1/29/3 18/30/3 7/31/3 14/32/3
f 18/33/6 17/34/6 15/35/6 7/36/6
f 13/37/1 12/38/1 16/39/1 14/40/1
f 19/41/6 20/42/6 21/43/6 22/44/6
f 23/45/1 24/46/1 25/47/1 8/48/1
f 26/49/5 21/50/5 20/51/5 23/52/5
f 9/53/4 22/54/4 21/55/4 26/56/4
f 8/57/3 19/58/3 22/59/3 9/60/3
f 10/61/4 9/62/4 26/63/4 11/64/4
f 11/65/5 26/66/5 23/67/5 15/68/5
f 15/69/2 23/70/2 8/71/2 7/72/2
f 27/73/2 28/74/2 29/75/2 30/76/2
f 31/77/5 28/78/5 27/79/5 24/80/5
f 32/81/6 29/82/6 28/83/6 31/84/6
f 25/85/3 30/86/3 29/87/3 32/88/3
f 4/89/3 6/90/3 18/91/3 1/92/3
f 14/93/1 16/94/1 2/95/1 1/96/1
f 8/97/3 25/98/3 32/99/3 19/100/3
f 5/101/5 3/102/5 2/103/5 17/104/5
f 19/105/6 32/106/6 31/107/6 20/108/6
f 20/109/5 31/110/5 24/111/5 23/112/5
f 27/113/5 5/114/5 17/115/5 24/116/5
f 30/117/2 6/118/2 5/119/2 27/120/2
f 25/121/3 18/122/3 6/123/3 30/124/3
f 24/125/4 17/126/4 18/127/4 25/128/4
