# Blender v2.79 (sub 0) OBJ File: ''
# www.blender.org
mtllib paddle.mtl
o Paddle_Cube
v 0.750000 0.000517 -0.150000
v 0.750000 0.000517 0.150000
v -0.750000 0.000517 0.150000
v -0.749999 0.000517 -0.150000
v 0.750000 0.300517 -0.150000
v -0.750000 0.300517 -0.150000
v -0.750000 0.300517 0.150000
v 0.749999 0.300517 0.150000
vt 0.447249 0.001343
vt 0.447249 0.492744
vt 0.000000 0.494931
vt 0.000000 0.003529
vt 0.897116 0.481105
vt 0.449819 0.480277
vt 0.449973 0.000000
vt 0.897269 0.000828
vt 0.988141 0.489126
vt 0.988576 0.969318
vt 0.846892 0.970791
vt 0.846457 0.490599
vt 0.458178 0.936455
vt 0.456824 0.494932
vt 0.898347 0.493577
vt 0.899701 0.935100
vt 0.988962 0.487653
vt 0.847278 0.489126
vt 0.846843 0.008934
vt 0.988527 0.007461
vt 0.903494 0.493572
vt 0.901317 0.929333
vt 0.454067 0.931520
vt 0.456245 0.495759
vn 0.0000 -1.0000 -0.0000
vn 0.0000 1.0000 0.0000
vn 1.0000 0.0000 0.0000
vn 0.0000 -0.0000 1.0000
vn -1.0000 -0.0000 -0.0000
vn 0.0000 0.0000 -1.0000
usemtl paddle
s 1
f 1/1/1 2/2/1 3/3/1
f 1/1/1 3/3/1 4/4/1
f 5/5/2 6/6/2 7/7/2
f 5/5/2 7/7/2 8/8/2
f 1/9/3 5/10/3 8/11/3
f 1/9/3 8/11/3 2/12/3
f 2/13/4 8/14/4 7/15/4
f 2/13/4 7/15/4 3/16/4
f 3/17/5 7/18/5 6/19/5
f 3/17/5 6/19/5 4/20/5
f 5/21/6 1/22/6 4/23/6
f 5/21/6 4/23/6 6/24/6
