# Blender v2.79 (sub 0) OBJ File: ''
# www.blender.org
mtllib ball.mtl
o Ball_Sphere
v -0.095671 0.000000 0.230970
v -0.176776 0.000000 0.176776
v -0.143016 -0.109254 0.176776
v -0.077399 -0.059128 0.230970
v -0.230970 0.000000 -0.095671
v -0.176776 0.000000 -0.176776
v -0.143016 -0.109254 -0.176776
v -0.186859 -0.142747 -0.095671
v -0.095671 0.000000 -0.230970
v -0.077399 -0.059128 -0.230970
v -0.202254 -0.154509 0.000000
v -0.071373 -0.230970 -0.095671
v -0.077254 -0.250000 0.000000
v -0.054627 -0.176776 0.176776
v -0.029564 -0.095671 0.230970
v -0.054627 -0.176776 -0.176776
v -0.186859 -0.142747 0.095671
v -0.071373 -0.230970 0.095671
v -0.029564 -0.095671 -0.230970
v 0.071373 -0.230970 -0.095671
v 0.077254 -0.250000 0.000000
v 0.054627 -0.176776 0.176776
v 0.029564 -0.095671 0.230970
v 0.054627 -0.176776 -0.176776
v 0.071373 -0.230970 0.095671
v 0.029564 -0.095671 -0.230970
v 0.186859 -0.142747 -0.095671
v 0.202254 -0.154509 0.000000
v 0.143016 -0.109254 0.176776
v 0.077399 -0.059128 0.230970
v 0.143016 -0.109254 -0.176776
v 0.186859 -0.142747 0.095671
v 0.077399 -0.059128 -0.230970
v 0.230970 0.000000 -0.095671
v 0.250000 0.000000 0.000000
v 0.176776 0.000000 0.176776
v 0.095671 0.000000 0.230970
v 0.176776 0.000000 -0.176776
v 0.230970 0.000000 0.095671
v 0.095671 0.000000 -0.230970
v 0.186859 0.142748 -0.095671
v 0.202254 0.154509 0.000000
v 0.143016 0.109254 0.176776
v 0.077399 0.059128 0.230970
v 0.143016 0.109254 -0.176776
v 0.186859 0.142748 0.095671
v 0.077399 0.059128 -0.230970
v 0.071373 0.230970 -0.095671
v 0.077254 0.250000 0.000000
v 0.054627 0.176776 0.176776
v 0.029564 0.095671 0.230970
v 0.054627 0.176776 -0.176776
v 0.071373 0.230970 0.095671
v 0.029564 0.095671 -0.230970
v -0.071373 0.230970 -0.095671
v -0.077254 0.250000 0.000000
v -0.054627 0.176776 0.176776
v -0.029564 0.095671 0.230970
v -0.054627 0.176776 -0.176776
v -0.071373 0.230970 0.095671
v -0.029564 0.095671 -0.230970
v -0.186859 0.142747 -0.095671
v -0.202255 0.154509 0.000000
v -0.143016 0.109254 0.176776
v -0.077399 0.059128 0.230970
v -0.143016 0.109254 -0.176776
v -0.186859 0.142747 0.095671
v -0.077399 0.059128 -0.230970
v -0.250000 0.000000 0.000000
v -0.230970 0.000000 0.095671
v 0.000000 0.000000 0.250000
v 0.000000 0.000000 -0.250000
vt 0.308658 0.500000
vt 0.146447 0.500000
vt 0.213969 0.707813
vt 0.345201 0.612468
vt 0.500000 0.691342
vt 0.500000 0.853553
vt 0.707813 0.853553
vt 0.771521 0.691342
vt 0.146447 0.500000
vt 0.308658 0.500000
vt 0.345201 0.612468
vt 0.213969 0.707813
vt 0.095491 0.500000
vt 0.126283 0.691342
vt 0.357253 0.691342
vt 0.345491 0.500000
vt 0.390746 0.836249
vt 0.440872 0.681977
vt 0.213969 0.853553
vt 0.390746 0.853553
vt 0.213969 0.146447
vt 0.126283 0.308658
vt 0.357253 0.308658
vt 0.390746 0.146447
vt 0.440872 0.681977
vt 0.390746 0.836249
vt 0.642747 0.691342
vt 0.654508 0.500000
vt 0.609254 0.836249
vt 0.559128 0.681977
vt 0.609254 0.853553
vt 0.642747 0.308658
vt 0.609254 0.146447
vt 0.559128 0.681977
vt 0.609254 0.836249
vt 0.873717 0.691342
vt 0.904508 0.500000
vt 0.786031 0.707813
vt 0.654799 0.612468
vt 0.786031 0.853553
vt 0.873717 0.308658
vt 0.786031 0.146447
vt 0.654799 0.612468
vt 0.786031 0.707813
vt 0.793893 0.500000
vt 0.771521 0.691342
vt 0.500000 0.691342
vt 0.500000 0.500000
vt 0.853553 0.500000
vt 0.691342 0.500000
vt 0.707813 0.853553
vt 0.500000 0.853553
vt 0.707813 0.146447
vt 0.771521 0.308658
vt 0.500000 0.308658
vt 0.500000 0.146447
vt 0.691342 0.500000
vt 0.853553 0.500000
vt 0.228479 0.691342
vt 0.206107 0.500000
vt 0.786031 0.292186
vt 0.654799 0.387532
vt 0.292186 0.853553
vt 0.228479 0.308658
vt 0.292186 0.146447
vt 0.654799 0.387532
vt 0.786031 0.292186
vt 0.904508 0.500000
vt 0.873717 0.691342
vt 0.642747 0.691342
vt 0.654508 0.500000
vt 0.609254 0.163751
vt 0.559128 0.318023
vt 0.786031 0.853553
vt 0.609254 0.853553
vt 0.786031 0.146447
vt 0.873717 0.308658
vt 0.642747 0.308658
vt 0.609254 0.146447
vt 0.559128 0.318023
vt 0.609254 0.163751
vt 0.357253 0.691342
vt 0.345491 0.500000
vt 0.390746 0.163751
vt 0.440872 0.318023
vt 0.390746 0.853553
vt 0.357253 0.308658
vt 0.390746 0.146447
vt 0.440872 0.318023
vt 0.390746 0.163751
vt 0.126283 0.691342
vt 0.095491 0.500000
vt 0.213969 0.292187
vt 0.345201 0.387532
vt 0.213969 0.853553
vt 0.126283 0.308658
vt 0.213969 0.146447
vt 0.345201 0.387532
vt 0.213969 0.292187
vt 0.228479 0.308658
vt 0.206107 0.500000
vt 0.500000 0.500000
vt 0.500000 0.308658
vt 0.793893 0.500000
vt 0.771521 0.308658
vt 0.500000 0.500000
vt 0.500000 0.500000
vt 0.500000 0.146447
vt 0.707813 0.146447
vt 0.228479 0.691342
vt 0.292187 0.853553
vt 0.292187 0.146447
vn -0.5476 -0.1692 0.8195
vn -0.8053 -0.2489 -0.5381
vn -0.5476 -0.1692 -0.8195
vn -0.5958 -0.7799 -0.1918
vn -0.3414 -0.4470 0.8268
vn -0.5075 -0.6643 -0.5487
vn -0.5075 -0.6644 -0.5487
vn -0.5075 -0.6643 0.5487
vn -0.3414 -0.4470 -0.8268
vn -0.5958 -0.7799 0.1918
vn 0.0000 -0.9808 -0.1951
vn 0.0000 -0.5556 0.8315
vn 0.0000 -0.8315 -0.5556
vn 0.0000 -0.8315 0.5556
vn 0.0000 -0.5556 -0.8315
vn 0.0000 -0.9808 0.1951
vn 0.5958 -0.7799 -0.1918
vn 0.3414 -0.4470 0.8268
vn 0.5075 -0.6643 -0.5487
vn 0.5075 -0.6643 0.5487
vn 0.5075 -0.6644 0.5487
vn 0.3414 -0.4470 -0.8268
vn 0.5958 -0.7799 0.1918
vn 0.9386 -0.2901 -0.1867
vn 0.5476 -0.1692 0.8195
vn 0.8053 -0.2489 -0.5381
vn 0.8053 -0.2489 0.5381
vn 0.5476 -0.1692 -0.8195
vn 0.9386 -0.2901 0.1867
vn 0.9386 0.2901 -0.1867
vn 0.5476 0.1692 0.8195
vn 0.8053 0.2489 -0.5381
vn 0.8053 0.2489 0.5381
vn 0.5476 0.1692 -0.8195
vn 0.9386 0.2901 0.1867
vn 0.5958 0.7799 -0.1918
vn 0.3414 0.4470 0.8268
vn 0.5075 0.6643 -0.5487
vn 0.5075 0.6643 0.5487
vn 0.3414 0.4470 -0.8268
vn 0.5958 0.7799 0.1918
vn 0.0000 0.9808 -0.1951
vn 0.0000 0.5556 0.8315
vn 0.0000 0.8315 -0.5556
vn 0.0000 0.8315 0.5556
vn 0.0000 0.5556 -0.8315
vn 0.0000 0.9808 0.1951
vn -0.5958 0.7799 -0.1918
vn -0.3414 0.4470 0.8268
vn -0.5075 0.6643 -0.5487
vn -0.5075 0.6643 0.5487
vn -0.5075 0.6644 0.5487
vn -0.3414 0.4470 -0.8268
vn -0.5958 0.7799 0.1918
vn -0.9386 0.2900 0.1867
vn -0.9386 0.2901 0.1867
vn -0.9386 -0.2901 0.1867
vn -0.1947 -0.0602 0.9790
vn -0.1947 -0.0602 -0.9790
vn -0.9386 -0.2901 -0.1867
vn -0.8053 -0.2489 0.5381
vn -0.1205 -0.1577 0.9801
vn -0.1205 -0.1577 -0.9801
vn 0.0000 -0.1951 0.9808
vn 0.0000 -0.1951 -0.9808
vn 0.1205 -0.1577 0.9801
vn 0.1205 -0.1577 -0.9801
vn 0.1947 -0.0602 0.9790
vn 0.1947 -0.0602 -0.9790
vn 0.1947 0.0602 0.9790
vn 0.1947 0.0602 -0.9790
vn 0.1205 0.1577 0.9801
vn 0.1205 0.1577 -0.9801
vn 0.0000 0.1951 0.9808
vn 0.0000 0.1951 -0.9808
vn -0.1205 0.1577 0.9801
vn -0.1205 0.1577 -0.9801
vn -0.9386 0.2901 -0.1867
vn -0.9386 0.2900 -0.1867
vn -0.5476 0.1692 0.8195
vn -0.8053 0.2489 -0.5381
vn -0.8053 0.2489 0.5381
vn -0.5476 0.1692 -0.8195
vn -0.1947 0.0602 0.9790
vn -0.1947 0.0602 -0.9790
usemtl ball
s 1
f 1/1/1 2/2/1 3/3/1
f 1/1/1 3/3/1 4/4/1
f 5/5/2 6/6/2 7/7/2
f 5/5/2 7/7/2 8/8/2
f 6/9/3 9/10/3 10/11/3
f 6/9/3 10/11/3 7/12/3
f 11/13/4 8/14/4 12/15/4
f 11/13/4 12/15/4 13/16/4
f 4/4/5 3/3/5 14/17/5
f 4/4/5 14/17/5 15/18/5
f 8/14/6 7/19/7 16/20/6
f 8/14/6 16/20/6 12/15/6
f 3/21/8 17/22/8 18/23/8
f 3/21/8 18/23/8 14/24/8
f 7/12/9 10/11/9 19/25/9
f 7/12/9 19/25/9 16/26/9
f 17/22/10 11/13/10 13/16/10
f 17/22/10 13/16/10 18/23/10
f 13/16/11 12/15/11 20/27/11
f 13/16/11 20/27/11 21/28/11
f 15/18/12 14/17/12 22/29/12
f 15/18/12 22/29/12 23/30/12
f 12/15/13 16/20/13 24/31/13
f 12/15/13 24/31/13 20/27/13
f 14/24/14 18/23/14 25/32/14
f 14/24/14 25/32/14 22/33/14
f 16/26/15 19/25/15 26/34/15
f 16/26/15 26/34/15 24/35/15
f 18/23/16 13/16/16 21/28/16
f 18/23/16 21/28/16 25/32/16
f 21/28/17 20/27/17 27/36/17
f 21/28/17 27/36/17 28/37/17
f 23/30/18 22/29/18 29/38/18
f 23/30/18 29/38/18 30/39/18
f 20/27/19 24/31/19 31/40/19
f 20/27/19 31/40/19 27/36/19
f 22/33/20 25/32/20 32/41/20
f 22/33/20 32/41/20 29/42/21
f 24/35/22 26/34/22 33/43/22
f 24/35/22 33/43/22 31/44/22
f 25/32/23 21/28/23 28/37/23
f 25/32/23 28/37/23 32/41/23
f 28/45/24 27/46/24 34/47/24
f 28/45/24 34/47/24 35/48/24
f 30/39/25 29/38/25 36/49/25
f 30/39/25 36/49/25 37/50/25
f 27/46/26 31/51/26 38/52/26
f 27/46/26 38/52/26 34/47/26
f 29/53/27 32/54/27 39/55/27
f 29/53/27 39/55/27 36/56/27
f 31/44/28 33/43/28 40/57/28
f 31/44/28 40/57/28 38/58/28
f 32/54/29 28/45/29 35/48/29
f 32/54/29 35/48/29 39/55/29
f 35/48/30 34/47/30 41/59/30
f 35/48/30 41/59/30 42/60/30
f 37/50/31 36/49/31 43/61/31
f 37/50/31 43/61/31 44/62/31
f 34/47/32 38/52/32 45/63/32
f 34/47/32 45/63/32 41/59/32
f 36/56/33 39/55/33 46/64/33
f 36/56/33 46/64/33 43/65/33
f 38/58/34 40/57/34 47/66/34
f 38/58/34 47/66/34 45/67/34
f 39/55/35 35/48/35 42/60/35
f 39/55/35 42/60/35 46/64/35
f 42/68/36 41/69/36 48/70/36
f 42/68/36 48/70/36 49/71/36
f 44/62/37 43/61/37 50/72/37
f 44/62/37 50/72/37 51/73/37
f 41/69/38 45/74/38 52/75/38
f 41/69/38 52/75/38 48/70/38
f 43/76/39 46/77/39 53/78/39
f 43/76/39 53/78/39 50/79/39
f 45/67/40 47/66/40 54/80/40
f 45/67/40 54/80/40 52/81/40
f 46/77/41 42/68/41 49/71/41
f 46/77/41 49/71/41 53/78/41
f 49/71/42 48/70/42 55/82/42
f 49/71/42 55/82/42 56/83/42
f 51/73/43 50/72/43 57/84/43
f 51/73/43 57/84/43 58/85/43
f 48/70/44 52/75/44 59/86/44
f 48/70/44 59/86/44 55/82/44
f 50/79/45 53/78/45 60/87/45
f 50/79/45 60/87/45 57/88/45
f 52/81/46 54/80/46 61/89/46
f 52/81/46 61/89/46 59/90/46
f 53/78/47 49/71/47 56/83/47
f 53/78/47 56/83/47 60/87/47
f 56/83/48 55/82/48 62/91/48
f 56/83/48 62/91/48 63/92/48
f 58/85/49 57/84/49 64/93/49
f 58/85/49 64/93/49 65/94/49
f 55/82/50 59/86/50 66/95/50
f 55/82/50 66/95/50 62/91/50
f 57/88/51 60/87/51 67/96/51
f 57/88/51 67/96/51 64/97/52
f 59/90/53 61/89/53 68/98/53
f 59/90/53 68/98/53 66/99/53
f 60/87/54 56/83/54 63/92/54
f 60/87/54 63/92/54 67/96/54
f 67/100/55 63/101/55 69/102/56
f 67/100/55 69/102/56 70/103/56
f 70/103/57 69/102/57 11/104/57
f 70/103/57 11/104/57 17/105/57
f 71/106/58 1/1/58 4/4/58
f 9/10/59 72/107/59 10/11/59
f 69/102/60 5/5/60 8/8/60
f 69/102/60 8/8/60 11/104/60
f 2/108/61 70/103/61 17/105/61
f 2/108/61 17/105/61 3/109/61
f 71/106/62 4/4/62 15/18/62
f 10/11/63 72/107/63 19/25/63
f 71/106/64 15/18/64 23/30/64
f 19/25/65 72/107/65 26/34/65
f 71/106/66 23/30/66 30/39/66
f 26/34/67 72/107/67 33/43/67
f 71/106/68 30/39/68 37/50/68
f 33/43/69 72/107/69 40/57/69
f 71/106/70 37/50/70 44/62/70
f 40/57/71 72/107/71 47/66/71
f 71/106/72 44/62/72 51/73/72
f 47/66/73 72/107/73 54/80/73
f 71/106/74 51/73/74 58/85/74
f 54/80/75 72/107/75 61/89/75
f 71/106/76 58/85/76 65/94/76
f 61/89/77 72/107/77 68/98/77
f 63/101/78 62/110/78 5/5/79
f 63/101/78 5/5/79 69/102/79
f 65/94/80 64/93/80 2/2/80
f 65/94/80 2/2/80 1/1/80
f 62/110/81 66/111/81 6/6/81
f 62/110/81 6/6/81 5/5/81
f 64/112/82 67/100/82 70/103/82
f 64/112/82 70/103/82 2/108/82
f 9/10/83 6/9/83 66/99/83
f 9/10/83 66/99/83 68/98/83
f 71/106/84 65/94/84 1/1/84
f 72/107/85 9/10/85 68/98/85
