# Blender v2.65 (sub 0) OBJ File: 'ball.blend'
# www.blender.org
mtllib ball.mtl
o Ball_Sphere
v -0.191342 0.461940 0.000000
v -0.353553 0.353553 0.000000
v -0.461940 0.191342 0.000000
v -0.353553 -0.353553 0.000000
v -0.191342 -0.461940 0.000000
v -0.154799 0.461940 -0.118256
v -0.286031 0.353553 -0.218508
v -0.373717 0.191342 -0.285494
v -0.404508 -0.000000 -0.309017
v -0.373717 -0.191342 -0.285494
v -0.286031 -0.353553 -0.218508
v -0.154799 -0.461940 -0.118256
v -0.059128 0.461940 -0.191342
v -0.109254 0.353553 -0.353553
v -0.142747 0.191342 -0.461940
v -0.154509 -0.000000 -0.500000
v -0.142747 -0.191342 -0.461940
v -0.109254 -0.353553 -0.353553
v -0.059128 -0.461940 -0.191342
v -0.000000 0.500000 0.000000
v 0.059128 0.461940 -0.191342
v 0.109254 0.353553 -0.353553
v 0.142747 0.191342 -0.461940
v 0.154508 -0.000000 -0.500000
v 0.142747 -0.191342 -0.461940
v 0.109254 -0.353553 -0.353553
v 0.059128 -0.461940 -0.191342
v 0.154799 0.461940 -0.118256
v 0.286031 0.353553 -0.218508
v 0.373717 0.191342 -0.285494
v 0.404508 -0.000000 -0.309017
v 0.373717 -0.191342 -0.285494
v 0.286031 -0.353553 -0.218508
v 0.154799 -0.461940 -0.118256
v 0.191342 0.461940 0.000000
v 0.353553 0.353553 0.000000
v 0.461940 0.191342 0.000000
v 0.500000 -0.000000 0.000000
v 0.461940 -0.191342 0.000000
v 0.353553 -0.353553 0.000000
v 0.191342 -0.461940 0.000000
v -0.000000 -0.500000 0.000000
v 0.154799 0.461940 0.118256
v 0.286031 0.353553 0.218508
v 0.373717 0.191342 0.285495
v 0.404508 -0.000000 0.309017
v 0.373717 -0.191342 0.285495
v 0.286031 -0.353553 0.218508
v 0.154799 -0.461940 0.118256
v 0.059128 0.461940 0.191342
v 0.109254 0.353553 0.353553
v 0.142747 0.191342 0.461940
v 0.154508 -0.000000 0.500000
v 0.142747 -0.191342 0.461940
v 0.109254 -0.353553 0.353553
v 0.059128 -0.461940 0.191342
v -0.059128 0.461940 0.191342
v -0.109254 0.353553 0.353553
v -0.142747 0.191342 0.461940
v -0.154509 -0.000000 0.500000
v -0.142747 -0.191342 0.461940
v -0.109254 -0.353553 0.353553
v -0.059128 -0.461940 0.191342
v -0.154799 0.461940 0.118256
v -0.286031 0.353553 0.218508
v -0.373717 0.191342 0.285494
v -0.404509 -0.000000 0.309017
v -0.373717 -0.191342 0.285494
v -0.286031 -0.353553 0.218508
v -0.154799 -0.461940 0.118256
v -0.500000 -0.000000 -0.000000
v -0.461940 -0.191342 -0.000000
vt 0.308658 0.500000
vt 0.146447 0.500000
vt 0.213969 0.707813
vt 0.345201 0.612468
vt 0.500000 0.691342
vt 0.500000 0.853553
vt 0.707813 0.853553
vt 0.771521 0.691342
vt 0.095491 0.500000
vt 0.126283 0.691342
vt 0.357253 0.691342
vt 0.345491 0.500000
vt 0.390746 0.836249
vt 0.440872 0.681977
vt 0.213969 0.853553
vt 0.390746 0.853553
vt 0.213969 0.146447
vt 0.126283 0.308658
vt 0.357253 0.308658
vt 0.390746 0.146447
vt 0.642747 0.691342
vt 0.654508 0.500000
vt 0.609254 0.836249
vt 0.559128 0.681977
vt 0.609254 0.853553
vt 0.642747 0.308658
vt 0.609254 0.146447
vt 0.873717 0.691342
vt 0.904508 0.500000
vt 0.786031 0.707813
vt 0.654799 0.612468
vt 0.786031 0.853553
vt 0.873717 0.308658
vt 0.786031 0.146447
vt 0.793893 0.500000
vt 0.500000 0.500000
vt 0.853553 0.500000
vt 0.691342 0.500000
vt 0.707813 0.146447
vt 0.771521 0.308658
vt 0.500000 0.308658
vt 0.500000 0.146447
vt 0.228479 0.691342
vt 0.206107 0.500000
vt 0.786031 0.292186
vt 0.654799 0.387532
vt 0.292186 0.853553
vt 0.228479 0.308658
vt 0.292186 0.146447
vt 0.609254 0.163751
vt 0.559128 0.318023
vt 0.390746 0.163751
vt 0.440872 0.318023
vt 0.213969 0.292187
vt 0.345201 0.387532
vt 0.292187 0.853553
vt 0.292187 0.146447
vn -0.547559 -0.819480 -0.169205
vn -0.805312 0.538092 -0.248855
vn -0.547559 0.819481 -0.169205
vn -0.595797 0.191755 -0.779908
vn -0.341445 -0.826828 -0.446957
vn -0.507517 0.548695 -0.664349
vn -0.507517 -0.548695 -0.664349
vn -0.341445 0.826828 -0.446957
vn -0.595797 -0.191755 -0.779908
vn 0.000000 0.195091 -0.980785
vn 0.000000 -0.831470 -0.555570
vn 0.000000 0.555570 -0.831470
vn 0.000000 -0.555570 -0.831470
vn 0.000000 0.831470 -0.555570
vn 0.000000 -0.195091 -0.980785
vn 0.595797 0.191756 -0.779908
vn 0.341445 -0.826828 -0.446957
vn 0.507518 0.548695 -0.664349
vn 0.507517 -0.548695 -0.664349
vn 0.341445 0.826828 -0.446957
vn 0.595797 -0.191756 -0.779908
vn 0.938623 0.186704 -0.290050
vn 0.547559 -0.819480 -0.169205
vn 0.805312 0.538092 -0.248855
vn 0.805312 -0.538092 -0.248855
vn 0.547559 0.819481 -0.169205
vn 0.938623 -0.186704 -0.290050
vn 0.938623 0.186704 0.290050
vn 0.547559 -0.819481 0.169205
vn 0.805312 0.538092 0.248855
vn 0.805312 -0.538093 0.248855
vn 0.547559 0.819481 0.169205
vn 0.938623 -0.186704 0.290050
vn 0.595797 0.191755 0.779908
vn 0.341445 -0.826828 0.446957
vn 0.507517 0.548695 0.664349
vn 0.507517 -0.548695 0.664349
vn 0.341444 0.826828 0.446957
vn 0.595797 -0.191755 0.779908
vn -0.000000 0.195090 0.980785
vn -0.000000 -0.831470 0.555570
vn -0.000000 0.555570 0.831470
vn -0.000000 -0.555570 0.831470
vn -0.000000 0.831470 0.555570
vn -0.000000 -0.195090 0.980785
vn -0.595797 0.191755 0.779908
vn -0.341445 -0.826828 0.446957
vn -0.507518 0.548695 0.664349
vn -0.507518 -0.548696 0.664349
vn -0.341445 0.826829 0.446957
vn -0.595797 -0.191755 0.779908
vn -0.938623 -0.186704 0.290050
vn -0.938623 -0.186704 -0.290051
vn -0.194737 -0.979008 -0.060177
vn -0.194737 0.979008 -0.060177
vn -0.938623 0.186704 -0.290051
vn -0.805312 -0.538093 -0.248855
vn -0.120489 -0.980105 -0.157722
vn -0.120489 0.980105 -0.157722
vn 0.000000 -0.980785 -0.195090
vn 0.000000 0.980785 -0.195090
vn 0.120489 -0.980105 -0.157722
vn 0.120489 0.980105 -0.157722
vn 0.194737 -0.979008 -0.060177
vn 0.194737 0.979008 -0.060177
vn 0.194737 -0.979008 0.060177
vn 0.194737 0.979008 0.060177
vn 0.120489 -0.980105 0.157722
vn 0.120489 0.980105 0.157722
vn -0.000000 -0.980785 0.195090
vn -0.000000 0.980785 0.195091
vn -0.120489 -0.980105 0.157722
vn -0.120489 0.980105 0.157722
vn -0.938623 0.186704 0.290050
vn -0.547559 -0.819481 0.169205
vn -0.805312 0.538092 0.248854
vn -0.805312 -0.538093 0.248855
vn -0.547559 0.819481 0.169205
vn -0.194737 -0.979008 0.060177
vn -0.194737 0.979008 0.060177
usemtl ball
s off
f 5/1/1 4/2/1 11/3/1
f 5/1/1 11/3/1 12/4/1
f 3/5/2 2/6/2 7/7/2
f 3/5/2 7/7/2 8/8/2
f 2/2/3 1/1/3 6/4/3
f 2/2/3 6/4/3 7/3/3
f 9/9/4 8/10/4 15/11/4
f 9/9/4 15/11/4 16/12/4
f 12/4/5 11/3/5 18/13/5
f 12/4/5 18/13/5 19/14/5
f 8/10/6 7/15/6 14/16/6
f 8/10/6 14/16/6 15/11/6
f 11/17/7 10/18/7 17/19/7
f 11/17/7 17/19/7 18/20/7
f 7/3/8 6/4/8 13/14/8
f 7/3/8 13/14/8 14/13/8
f 10/18/9 9/9/9 16/12/9
f 10/18/9 16/12/9 17/19/9
f 16/12/10 15/11/10 23/21/10
f 16/12/10 23/21/10 24/22/10
f 19/14/11 18/13/11 26/23/11
f 19/14/11 26/23/11 27/24/11
f 15/11/12 14/16/12 22/25/12
f 15/11/12 22/25/12 23/21/12
f 18/20/13 17/19/13 25/26/13
f 18/20/13 25/26/13 26/27/13
f 14/13/14 13/14/14 21/24/14
f 14/13/14 21/24/14 22/23/14
f 17/19/15 16/12/15 24/22/15
f 17/19/15 24/22/15 25/26/15
f 24/22/16 23/21/16 30/28/16
f 24/22/16 30/28/16 31/29/16
f 27/24/17 26/23/17 33/30/17
f 27/24/17 33/30/17 34/31/17
f 23/21/18 22/25/18 29/32/18
f 23/21/18 29/32/18 30/28/18
f 26/27/19 25/26/19 32/33/19
f 26/27/19 32/33/19 33/34/19
f 22/23/20 21/24/20 28/31/20
f 22/23/20 28/31/20 29/30/20
f 25/26/21 24/22/21 31/29/21
f 25/26/21 31/29/21 32/33/21
f 31/35/22 30/8/22 37/5/22
f 31/35/22 37/5/22 38/36/22
f 34/31/23 33/30/23 40/37/23
f 34/31/23 40/37/23 41/38/23
f 30/8/24 29/7/24 36/6/24
f 30/8/24 36/6/24 37/5/24
f 33/39/25 32/40/25 39/41/25
f 33/39/25 39/41/25 40/42/25
f 29/30/26 28/31/26 35/38/26
f 29/30/26 35/38/26 36/37/26
f 32/40/27 31/35/27 38/36/27
f 32/40/27 38/36/27 39/41/27
f 38/36/28 37/5/28 45/43/28
f 38/36/28 45/43/28 46/44/28
f 41/38/29 40/37/29 48/45/29
f 41/38/29 48/45/29 49/46/29
f 37/5/30 36/6/30 44/47/30
f 37/5/30 44/47/30 45/43/30
f 40/42/31 39/41/31 47/48/31
f 40/42/31 47/48/31 48/49/31
f 36/37/32 35/38/32 43/46/32
f 36/37/32 43/46/32 44/45/32
f 39/41/33 38/36/33 46/44/33
f 39/41/33 46/44/33 47/48/33
f 46/29/34 45/28/34 52/21/34
f 46/29/34 52/21/34 53/22/34
f 49/46/35 48/45/35 55/50/35
f 49/46/35 55/50/35 56/51/35
f 45/28/36 44/32/36 51/25/36
f 45/28/36 51/25/36 52/21/36
f 48/34/37 47/33/37 54/26/37
f 48/34/37 54/26/37 55/27/37
f 44/45/38 43/46/38 50/51/38
f 44/45/38 50/51/38 51/50/38
f 47/33/39 46/29/39 53/22/39
f 47/33/39 53/22/39 54/26/39
f 53/22/40 52/21/40 59/11/40
f 53/22/40 59/11/40 60/12/40
f 56/51/41 55/50/41 62/52/41
f 56/51/41 62/52/41 63/53/41
f 52/21/42 51/25/42 58/16/42
f 52/21/42 58/16/42 59/11/42
f 55/27/43 54/26/43 61/19/43
f 55/27/43 61/19/43 62/20/43
f 51/50/44 50/51/44 57/53/44
f 51/50/44 57/53/44 58/52/44
f 54/26/45 53/22/45 60/12/45
f 54/26/45 60/12/45 61/19/45
f 60/12/46 59/11/46 66/10/46
f 60/12/46 66/10/46 67/9/46
f 63/53/47 62/52/47 69/54/47
f 63/53/47 69/54/47 70/55/47
f 59/11/48 58/16/48 65/15/48
f 59/11/48 65/15/48 66/10/48
f 62/20/49 61/19/49 68/18/49
f 62/20/49 68/18/49 69/17/49
f 58/52/50 57/53/50 64/55/50
f 58/52/50 64/55/50 65/54/50
f 61/19/51 60/12/51 67/9/51
f 61/19/51 67/9/51 68/18/51
f 68/48/52 67/44/52 71/36/52
f 68/48/52 71/36/52 72/41/52
f 72/41/53 71/36/53 9/35/53
f 72/41/53 9/35/53 10/40/53
f 42/36/54 5/1/54 12/4/54
f 1/1/55 20/36/55 6/4/55
f 71/36/56 3/5/56 8/8/56
f 71/36/56 8/8/56 9/35/56
f 4/42/57 72/41/57 10/40/57
f 4/42/57 10/40/57 11/39/57
f 42/36/58 12/4/58 19/14/58
f 6/4/59 20/36/59 13/14/59
f 42/36/60 19/14/60 27/24/60
f 13/14/61 20/36/61 21/24/61
f 42/36/62 27/24/62 34/31/62
f 21/24/63 20/36/63 28/31/63
f 42/36/64 34/31/64 41/38/64
f 28/31/65 20/36/65 35/38/65
f 42/36/66 41/38/66 49/46/66
f 35/38/67 20/36/67 43/46/67
f 42/36/68 49/46/68 56/51/68
f 43/46/69 20/36/69 50/51/69
f 42/36/70 56/51/70 63/53/70
f 50/51/71 20/36/71 57/53/71
f 42/36/72 63/53/72 70/55/72
f 57/53/73 20/36/73 64/55/73
f 67/44/74 66/43/74 3/5/74
f 67/44/74 3/5/74 71/36/74
f 70/55/75 69/54/75 4/2/75
f 70/55/75 4/2/75 5/1/75
f 66/43/76 65/56/76 2/6/76
f 66/43/76 2/6/76 3/5/76
f 69/57/77 68/48/77 72/41/77
f 69/57/77 72/41/77 4/42/77
f 1/1/78 2/2/78 65/54/78
f 1/1/78 65/54/78 64/55/78
f 42/36/79 70/55/79 5/1/79
f 20/36/80 1/1/80 64/55/80
